<svg width="16" height="16" viewBox="0 0 16 16" fill="none" xmlns="http://www.w3.org/2000/svg">
<g clip-path="url(#clip0_697_2636)">
<path d="M12.875 0.75H3.125C1.67525 0.75 0.5 1.92525 0.5 3.375V12.625C0.5 14.0747 1.67525 15.25 3.125 15.25H12.875C14.3247 15.25 15.5 14.0747 15.5 12.625V3.375C15.5 1.92525 14.3247 0.75 12.875 0.75Z" fill="#330000"/>
<path d="M8.0493 9.75H5.81242L5.23492 11.4175C5.22826 11.4725 5.19346 11.5 5.13055 11.5H4.08055C4.01055 11.5 3.98617 11.4656 4.00742 11.3969L6.03367 5.37875C6.0909 5.19551 6.11915 5.00446 6.11742 4.8125C6.11629 4.80403 6.11713 4.79541 6.11987 4.78731C6.12261 4.77921 6.12718 4.77185 6.13323 4.7658C6.13927 4.75976 6.14663 4.75519 6.15473 4.75245C6.16283 4.74971 6.17145 4.74887 6.17992 4.75H7.64992C7.69242 4.75 7.7168 4.7675 7.72367 4.80125L9.99117 11.4075C10.0124 11.47 9.99492 11.5 9.93867 11.5H8.76305C8.7413 11.5013 8.71966 11.496 8.70094 11.4849C8.68222 11.4737 8.66727 11.4572 8.65805 11.4375L8.0493 9.75ZM6.06242 8.625H7.80492C7.76305 8.53313 6.9793 6.00438 6.92305 5.79125H6.91305L6.06242 8.625Z" fill="#FF9A00"/>
<path d="M11.2444 6C11.1458 6.00421 11.0474 5.98863 10.955 5.95417C10.8626 5.91971 10.778 5.86708 10.7063 5.79938C10.636 5.728 10.5815 5.6428 10.5459 5.54919C10.5104 5.45558 10.4948 5.35561 10.5 5.25563C10.4953 5.15437 10.5118 5.05326 10.5483 4.95869C10.5847 4.86412 10.6404 4.77816 10.7119 4.70625C10.7842 4.6374 10.8696 4.58369 10.9629 4.54828C11.0563 4.51286 11.1558 4.49645 11.2556 4.5C11.3556 4.49479 11.4556 4.51044 11.5492 4.54595C11.6428 4.58145 11.728 4.63605 11.7994 4.70625C11.8677 4.77986 11.9206 4.86637 11.9551 4.9607C11.9895 5.05504 12.0048 5.15531 12 5.25563C12.0052 5.35561 11.9896 5.45558 11.9541 5.54919C11.9185 5.6428 11.864 5.728 11.7938 5.79938C11.7201 5.8677 11.6336 5.92064 11.5393 5.95509C11.445 5.98955 11.3447 6.00481 11.2444 6Z" fill="#FF9A00"/>
<path d="M10.6248 11.4063V6.58381C10.6231 6.57242 10.6241 6.5608 10.6278 6.54987C10.6314 6.53894 10.6375 6.52901 10.6456 6.52087C10.6538 6.51273 10.6637 6.50661 10.6746 6.50299C10.6856 6.49938 10.6972 6.49838 10.7086 6.50006H11.7911C11.8024 6.49851 11.814 6.49961 11.8249 6.50327C11.8357 6.50693 11.8456 6.51305 11.8537 6.52116C11.8618 6.52927 11.8679 6.53915 11.8716 6.55001C11.8753 6.56088 11.8764 6.57245 11.8748 6.58381V11.4163C11.8765 11.4277 11.8755 11.4393 11.8719 11.4503C11.8683 11.4612 11.8622 11.4711 11.854 11.4793C11.8459 11.4874 11.8359 11.4935 11.825 11.4971C11.8141 11.5007 11.8025 11.5017 11.7911 11.5001H10.7186C10.7058 11.5018 10.6929 11.5006 10.6807 11.4965C10.6685 11.4924 10.6575 11.4856 10.6484 11.4765C10.6393 11.4674 10.6324 11.4564 10.6284 11.4442C10.6243 11.432 10.6231 11.419 10.6248 11.4063Z" fill="#FF9A00"/>
</g>
<defs>
<clipPath id="clip0_697_2636">
<rect width="16" height="16" fill="white"/>
</clipPath>
</defs>
</svg>
